<?xml version="1.0" encoding="UTF-8"?>
<svg xmlns="http://www.w3.org/2000/svg" version="1.1" viewBox="0 0 200 200">
  <defs>
    <style>
      .cls-1 {
        fill: #e27900;
      }
    </style>
  </defs>
  <!-- Generator: Adobe Illustrator 28.7.4, SVG Export Plug-In . SVG Version: 1.2.0 Build 166)  -->
  <g>
    <g id="Layer_1">
      <g id="Layer_1-2" data-name="Layer_1">
        <g id="Layer_1-2">
          <path class="cls-1" d="M181,200.3H19.3c-6.6,0-12.8-3.6-16.9-10.3-3.2-5.2-3.2-13,0-19.6l9.1-18.7c6.4-12.8,22.1-20.8,34-21.7,3.9,0,11.6-1.8,19.4-3.6,5.7-1.4,8.9-2.3,10.7-3-.5-1.6-1.4-3.4-2.5-5-13.7-10.7-21.9-28.7-21.9-48.1,0-31.9,21.9-57.7,49-57.7s49,26,49,57.7-8.2,37.4-21.9,48.1c-1.1,1.6-2.1,3.2-2.5,4.8,1.8.7,5,1.6,10.5,3,6.8,1.6,15.1,3,19.2,3.4,12.1,1.1,27.6,8.7,34,21.4l8.9,18c3.4,6.8,3.4,15.5,0,20.8-3.6,6.6-10,10.5-16.4,10.5h0ZM100.3,21.9c-22.1,0-39.9,21.9-39.9,48.6s7.1,32.2,18.7,41.3c0,0,.7.5.9.9,3.2,4.1,5,8.7,5,13.5s-.5,2.7-1.6,3.6c-.9.7-3.2,2.7-16.4,5.9-6.2,1.4-15.5,3.2-20.8,3.6-9.4.9-21.9,7.3-26.5,16.7l-8.9,18.7c-1.8,3.9-2.1,8.4-.5,10.9,1.8,3,5.2,5.9,9.1,5.9h161.7c3.9,0,7.3-3,9.1-5.9,1.4-2.3,1.6-7.8-.5-11.9l-8.9-18c-4.6-9.1-17.1-15.5-26.5-16.4-4.6-.5-13.2-1.8-20.5-3.6-13.2-3.2-15.5-5.2-16.4-5.7-.9-.9-1.6-2.3-1.6-3.6,0-4.8,1.8-9.4,5-13.5,0,0,.5-.7.9-.9,11.6-8.9,18.7-24.4,18.7-41.1-.5-27.1-18.2-49-40.4-49h.3Z"/>
        </g>
      </g>
    </g>
  </g>
</svg>