<?xml version="1.0" encoding="UTF-8"?>
<svg xmlns="http://www.w3.org/2000/svg" version="1.1" xmlns:serif="http://www.serif.com/" viewBox="0 0 864 864">
  <defs>
    <style>
      .cls-1 {
        fill: none;
        stroke: #fff;
        stroke-linecap: round;
        stroke-linejoin: round;
        stroke-width: 27px;
      }
    </style>
  </defs>
  <!-- Generator: Adobe Illustrator 28.7.4, SVG Export Plug-In . SVG Version: 1.2.0 Build 166)  -->
  <g>
    <g id="Layer_1">
      <path class="cls-1" d="M647.4,805.3c-78.6-11.5-123.4-151.2-99.8-311.7,23.5-160.5,106.5-281.4,185.1-269.9,78.6,11.5,123.4,151.2,99.8,311.6-23.5,160.5-106.5,281.4-185.1,269.9h0Z"/>
      <path class="cls-1" d="M647.4,805.3c-89.3-13.1-166-55.6-218.7-114.2"/>
      <path class="cls-1" d="M561.6,237.7c52.4-17.2,110.9-22.8,171.1-13.9"/>
      <path class="cls-1" d="M70,77.1c68.5-40.4,190.9,40.3,273.2,180.1,82.3,139.7,93.6,285.9,25.1,326.3-68.5,40.3-190.9-40.4-273.2-180.1C12.8,263.6,1.6,117.4,70,77.1h0Z"/>
      <path class="cls-1" d="M70,77.1c141.4-83.3,418.1,31.5,424.9,30.4,37.6-5.9,72.9,19.8,78.8,57.4,4.6,29-72.7,340.4-205.3,418.5"/>
      <path class="cls-1" d="M481.4,282.6s3.5,59.5-23.5,101.8"/>
      <path class="cls-1" d="M177.1,384.4l106.4-91.4"/>
      <path class="cls-1" d="M155,269.9l102.2,163.5"/>
      <path class="cls-1" d="M759.1,514.6l-140.2,4.1"/>
      <path class="cls-1" d="M677.2,624.8l23.5-191.4"/>
    </g>
  </g>
</svg>