<?xml version="1.0" encoding="UTF-8"?>
<svg xmlns="http://www.w3.org/2000/svg" version="1.1" viewBox="0 0 25 25">
  <defs>
    <style>
      .cls-1 {
        fill: #fff;
      }
    </style>
  </defs>
  <!-- Generator: Adobe Illustrator 28.7.4, SVG Export Plug-In . SVG Version: 1.2.0 Build 166)  -->
  <g>
    <g id="Layer_1">
      <g id="clock_1">
        <path class="cls-1" d="M12.5,1C6.1,1,1,6.1,1,12.5s5.1,11.5,11.5,11.5,11.5-5.1,11.5-11.5c0-6.3-5.2-11.5-11.5-11.5ZM12.5,23c-5.8,0-10.5-4.7-10.5-10.5S6.7,2,12.5,2s10.5,4.7,10.5,10.5c0,5.8-4.7,10.5-10.5,10.5Z"/>
        <path class="cls-1" d="M13,12.6v-7.1c0-.3-.2-.5-.5-.5s-.5.2-.5.5v7.3c0,.1,0,.3.2.4l5,4.7c0,0,.2.1.3.1.3,0,.5-.2.5-.5,0-.1,0-.3-.2-.4l-4.8-4.5Z"/>
      </g>
    </g>
  </g>
</svg>