<?xml version="1.0" encoding="UTF-8"?>
<svg xmlns="http://www.w3.org/2000/svg" version="1.1" viewBox="0 0 64 64">
  <defs>
    <style>
      .cls-1 {
        fill: #fff;
      }
    </style>
  </defs>
  <!-- Generator: Adobe Illustrator 28.7.4, SVG Export Plug-In . SVG Version: 1.2.0 Build 166)  -->
  <g>
    <g id="Layer_1">
      <g id="_x31_3_oven">
        <g>
          <path class="cls-1" d="M59.8,6.1H4.2c-1.8,0-3.2,1.5-3.2,3.2v40.9c0,1.4.9,2.6,2.2,3.1v2.6c0,1.1.9,2.1,2.1,2.1h11c1.1,0,2.1-.9,2.1-2.1v-2.4h27.3v2.4c0,1.1.9,2.1,2.1,2.1h11c1.1,0,2.1-.9,2.1-2.1v-2.6c1.3-.4,2.2-1.6,2.2-3.1V9.3c0-1.8-1.5-3.2-3.2-3.2ZM16.4,55.9s0,0,0,0H5.3s0,0,0,0v-2.4h11.1v2.4h0ZM58.8,55.9s0,0,0,0h-11s0,0,0,0v-2.4h11.1s0,2.4,0,2.4ZM61,50.2c0,.7-.6,1.2-1.2,1.2H4.2c-.7,0-1.2-.6-1.2-1.2V9.3c0-.7.6-1.2,1.2-1.2h55.5c.7,0,1.2.6,1.2,1.2v40.9Z"/>
          <path class="cls-1" d="M46.1,12.7H7.7c-.6,0-1,.4-1,1v32.2c0,.6.4,1,1,1h38.4c.6,0,1-.4,1-1V13.7c0-.6-.4-1-1-1ZM45.1,14.7v14.1H8.7v-14.1h36.4ZM8.7,44.9v-14.1h36.4v14.1s-36.4,0-36.4,0Z"/>
          <path class="cls-1" d="M51.4,18h4.8c.6,0,1-.4,1-1s-.4-1-1-1h-4.8c-.6,0-1,.4-1,1s.4,1,1,1Z"/>
          <path class="cls-1" d="M51.4,24.8h4.8c.6,0,1-.4,1-1s-.4-1-1-1h-4.8c-.6,0-1,.4-1,1s.4,1,1,1Z"/>
          <path class="cls-1" d="M53.9,36.6c-2.2,0-4,1.8-4,4s1.8,4,4,4,4-1.8,4-4-1.8-4-4-4ZM53.9,42.6c-1.1,0-2-.9-2-2s.9-2,2-2,2,.9,2,2-.9,2-2,2Z"/>
          <path class="cls-1" d="M51.4,31.8h4.8c.6,0,1-.4,1-1s-.4-1-1-1h-4.8c-.6,0-1,.4-1,1s.4,1,1,1Z"/>
        </g>
      </g>
    </g>
  </g>
</svg>